<?xml version="1.0" encoding="UTF-8"?>
<svg xmlns="http://www.w3.org/2000/svg" xmlns:xlink="http://www.w3.org/1999/xlink">

<!-- الاسبوع الأول -->
<g transform="translate(1024,0)">
<image data-src="image/B/01.webp" width="1024" height="2454" />
</g>
<!-- الاسبوع الثاني -->
<g transform="translate(2048,0)">
<image data-src="image/B/02.webp" width="1024" height="2454" />
</g>
<!-- الاسبوع الثالث -->
<g transform="translate(3072,0)">
<image data-src="image/B/03.webp" width="1024" height="2454" />
</g>
<!-- الاسبوع الرابع -->
<g transform="translate(4096,0)">
<image data-src="image/B/04.webp" width="1024" height="2454" />
</g>
<!-- الاسبوع الخامس -->
<g transform="translate(5120,0)">
<image data-src="image/B/05.webp" width="1024" height="2454" />
</g>
<!-- الاسبوع السادس -->
<g transform="translate(6144,0)">
<image data-src="image/B/06.webp" width="1024" height="2454" />
</g>
<!-- الاسبوع السابع -->
<g transform="translate(7168,0)">
<image data-src="image/B/07.webp" width="1024" height="2454" />
</g>
<!-- الاسبوع الثامن -->
<g transform="translate(8192,0)">
<image data-src="image/B/08.webp" width="1024" height="2454" />

<!-- Monday 8 -->
<g transform="translate(368,0)">

<rect x="0" y="703" height="380" class="m w l" data-href="RRS/Lecture/micro-01.pdf"/>

<rect x="0" y="1083" height="253.5" class="m w l" data-href="RRS/Lecture/patho-01.pdf"/>

<rect x="0" y="1339" height="125" class="m w q" data-href="RRS/Quesion/patho-01.pdf"/>

<rect x="0" y="1465" height="378.5" class="m w l" data-href="RRS/Lecture/physio-02.pdf"/>

<rect x="0" y="1845" height="380" class="m w s" data-href="RRS/Section/anatomy-01.pdf"/>

</g>
<!-- Wednesday 8 -->
<g transform="translate(598,0)">

<rect x="0" y="366" height="315" class="m w l" data-href="RRS/Lecture/physio-01.pdf"/>

<rect x="0" y="1846" height="253.4" class="m w l" data-href="RRS/Lecture/physio-02.pdf"/>

<rect x="0" y="2100" height="127" class="m w q" data-href="RRS/Question/physio-01.pdf"/>

</g>
<!-- Thursday 8 -->
<g transform="translate(712.35,0)">

<rect x="0" y="702" height="380" class="m w l" data-href="RRS/Lecture/histo-01.pdf"/>

<rect x="0" y="1465" height="380" class="m w l" data-href="RRS/Lecture/anatomy-02.pdf"/>

</g>
</g>
<!-- الاسبوع التاسع -->
<g transform="translate(9216,0)">
    <image data-src="image/B/09.webp" width="1024" height="2454"/>

<!-- Saturday 9 -->
<g transform="translate(140,0)">

<rect x="0" y="309" height="340.63" class="m w l" data-href="RRS/Lecture/pharma-01.pdf"/>

<rect x="0" y="876" height="349" class="m w i" data-href="IPC/book.pdf"/>

<rect x="0" y="1225" height="121" class="m hw q" data-href="IPC/Question/09.pdf"/>

<rect x="57.5" y="1225" height="121" class="m hw a" data-href="IPC/Answer/09.pdf"/>

<rect x="0" y="1810.38" height="470.24" class="m w l" data-href="#"/>

</g>
<!-- Monday 9 -->
<g transform="translate(370,0)">

<rect x="0" y="422.3" height="456.42" class="m w l" data-href="RRS/Lecture/physio-03.pdf"/>

<rect x="0" y="1369" height="450" class="m w l" data-href="RRS/Lecture/histo-02.pdf"/>

<rect x="0" y="1812.1" height="471.44" class="m w l" data-href="#"/>

</g>
<!-- Tuesday 9 -->
<g transform="translate(485,0)">

<rect x="0" y="1121.29" height="347.86" class="m w l" data-href="#"/>

<rect x="0" y="1470.58" height="340.47" class="m w l" data-href="#"/>

<rect x="0" y="1813.77" height="361.36" class="m w l" data-href="#"/>

</g>
<!-- Wednesday 9 -->
<g transform="translate(600,0)">

<rect x="0" y="421.64" height="457.44" class="m w l" data-href="#"/>

<rect x="0" y="1469.19" height="343.19" class="m w l" data-href="RRS/Lecture/physio-04.pdf"/>

</g>
<!-- Thursday 9 -->
<g transform="translate(715,0)">

<rect x="0" y="422.25" height="340.47" class="m w l" data-href="#"/>

<rect x="0" y="877.49" height="485.43" class="m w l" data-href="#"/>

<rect x="0" y="1364.73" height="447.54" class="m w l" data-href="#"/>

</g>
</g>
<!-- الاسبوع العاشر -->
<g transform="translate(10240,0)">
    <image data-src="image/B/10.webp" width="1024" height="2454" />
</g>
<!-- الاسبوع الحادي عشر-->
<g transform="translate(11264,0)">
    <image data-src="image/B/11.webp" width="1024" height="2454" />
</g>
<!-- الاسبوع الثاني عشر -->
<g transform="translate(12288,0)">
<image data-src="image/B/12.webp" width="1024" height="2454" />

<!-- Saturday 12 -->
<g transform="translate(138.41,0)">

<rect x="0" y="557.66" height="628.7" class="m w l" data-href="URI/Lecture/pharma-01.pdf"/>

</g>
</g>
<!-- الاسبوع الثالث عشر-->
<g transform="translate(13312,0)">
    <image data-src="image/B/13.webp" width="1024" height="2454" />

<!-- Saturday 13 -->
<g transform="translate(139,0)">

<rect x="0" y="937.7" height="468.3" class="m w l" data-href="#"/>

<rect x="0" y="1409" height="472.3" class="m w l" data-href="URI/Lecture/pharma-02.pdf"/>

<rect x="0" y="1883.5" height="395.5" class="m w s" data-href="URI/Section/micro-01.pdf"/>

</g>
<!-- Monday 13 -->
<g transform="translate(368,0)">

<rect x="0" y="415.1" height="424.1" class="m w l" data-href="#"/>

<rect x="0" y="839.15" height="445" class="m w l" data-href="#"/>

<rect x="0" y="1287.75" height="484.32" class="m w i" data-href="IPC/Lecture/Chest Inspection and Palpation.pdf" data-full-text="Chest Inspection and Palpation .pdf"/>

<rect x="0" y="1773.4" height="505.15" class="m w l" data-href="URI/Lecture/physio-01.pdf"/>

</g>
<!-- Tuesday 13 -->
<g transform="translate(485,0)">

<rect x="0" y="311.4" height="426.454" class="m w l" data-href="URI/Lecture/patho-01.pdf"/>

<rect x="0" y="1285.3" height="486" class="m w l" data-href="#"/>

</g>
<!-- Wednesday 13 -->
<g transform="translate(598,0)">

<rect x="0" y="415.1" height="323.85" class="m w l" data-href="URI/Lecture/micro-01.pdf"/>

<rect x="0" y="841.4" height="444" class="m w l " data-href="URI/Lecture/histo-01.pdf"/>

<rect x="0" y="1286.2" height="486.5" class="m w l" data-href="#"/>

</g>
<!-- Thursday 13 -->
<g transform="translate(714,0)">

<rect x="0" y="418.7" height="420" class="m w l" data-href="#"/>

<rect x="0" y="1286.5" height="485" class="m w l" data-href="#"/>

<rect x="0" y="1772.3" height="508.2" class="m w l" data-href="#"/>
</g>
</g>
<!-- الاسبوع الرابع عشر-->
<g transform="translate(14336,0)">
    <image data-src="image/B/14.webp" width="1024" height="2454" />

<!-- Saturday 14 -->
<g transform="translate(138,0)">
<rect x="0" y="242" height="350.6" class="m w l" data-href="#" />

<rect x="0" y="593" height="341.5" class="m w l" data-href="#" />

<rect x="0" y="934.3" height="320" class="m w l" data-href="URI/Lecture/pharma-03.pdf" />
</g>
<!-- Sunday 14 -->
<g transform="translate(252.8,0)">

<rect x="0" y="1264.5" height="494" class="m w l" data-href="URI/Lecture/anatomy-02.pdf" />

<rect x="0" y="1749.5" height="496.75" class="m w q" data-href="URI/Question/D-pharma-01.pdf" />
</g>
<!-- Monday 14 -->
<g transform="translate(368.5,0)">

<rect x="0" y="1204.3"  height="494.7" class="m w l" data-href="URI/Lecture/para-01.pdf" />

<rect x="0" y="650.4" height="350" class="m w l" data-href="#" />
</g>

<!-- Tuesday 14 -->
<g transform="translate(483,0)">

<rect x="0" y="1301.4"  height="495" class="m w l" data-href="#" />

<rect x="0" y="817.5" height="436" class="m w i" data-href="IPC/Question/Discussion-01.pdf" />

<rect x="0" y="1797.6" height="494.7" class="m w l" data-href="#" />
</g>

<!-- Wednesday 14 -->
<g transform="translate(598,0)">

<rect x="0" y="864.5"  height="436.6" class="m w l" data-href="#" />

<rect x="0" y="288.7"  height="350.55" class="m w l" data-href="#" />

<rect x="0" y="1300.7"  height="495.8" class="m w l" data-href="URI/Lecture/patho-02.pdf" />
</g>

<!-- Thursday 14 -->
<g transform="translate(712.5,0)">

<rect x="0" y="1300.8" height="371.58" class="m w l" data-href="#"/>

<rect x="0" y="863.9" height="436" class="m w l" data-href="#"/>

<rect x="0" y="1673" height="620" class="m w l" data-href="URI/Lecture/patho-03.pdf" />

</g>
</g>
<!-- الاسبوع الخامس عشر -->
<g transform="translate(15360,0)">
<image data-src="image/B/15.webp" width="1024" height="2454" />

</g>
<!-- الاسبوع السادس عشر -->
<g transform="translate(16384,0)">
<image data-src="image/B/16.webp" width="1024" height="2454" />

</g>
<!-- الاسبوع السابع عشر -->
<g transform="translate(17408,0)">
<image data-src="image/B/17.webp" width="1024" height="2454" />

<!-- Monday 17 -->
<g transform="translate(368,0)">

<rect x="0" y="1093.5" height="327.32" class="m w is" data-href="ipc" />

<rect x="0" y="1423" height="327.75" class="m w l" data-href="HEM/patho-01.pdf" />

<rect x="0" y="1752" height="370.7" class="m w l" data-href="#" />
</g>

<!-- Tuesday 17 -->
<g transform="translate(483,0)">

<rect y="355.4" height="518.2" class="m w l" data-href="#" />

<rect y="875.4" height="438.1" class="m w l" data-href="#" />

<rect y="1313" height="438.53" class="m w s" data-href="#" />

<rect y="1752.2" height="492.9" class="m w s" data-href="#" />
</g>

<!-- Wednesday 17 -->
<g transform="translate(597,0)">

<rect y="355.18" height="517" class="m w l" data-href="#" />
</g>

<!-- Thursday 17 -->
<g transform="translate(713,0)">

<rect y="874" height="438.76" class="m w l" data-href="#" />
</g>
</g>

<!-- الاسبوع الثامن عشر -->
<g transform="translate(18432,0)">
<image data-src="image/B/18.webp" width="1024" height="2454" />
</g>

<!-- الاسبوع التاسع عشر -->
<g transform="translate(19456,0)">
<image data-src="image/B/19.webp" width="1024" height="2454" />

<!-- Saturday 19 -->
<g transform="translate(140,0)">

<rect y="330" height="539.5" class="m w" data-href="#" />

<rect y="868" height="490" class="m w" data-href="#" />

<rect y="1358" height="492.4" class="m w" data-href="#" />
</g>

<!-- Monday 19 -->
<g transform="translate(368,0)">

<rect y="329.7" height="536.9" class="m w s" data-href="HEM/Section/micro-01.pdf" />

<rect x="0" y="866.25" height="492.8" class="m w s" data-href="HEM/Section/para-01.pdf" />

<rect x="0" y="1358.3" height="492" class="m w l" data-href="HEM/Lecture/patho-01.pdf" />

<rect x="0" y="1850" height="409.6" class="m w" data-href="#" />
</g>

<!-- Tuesday 19 -->
<g transform="translate(483,0)">

<rect x="0" y="329.7" height="536.9" class="m w" data-href="#" />

<rect x="0" y="866.25" height="492.8" class="m w" data-href="#" />
</g>

<!-- Wednesday 19 -->
<g transform="translate(598,0)">

<rect x="0" y="332" height="534.6" class="m w" data-href="#" />

<rect x="0" y="868" height="491.7" class="m w" data-href="#" />

<rect x="0" y="1359.2" height="491" class="m w" data-href="#" />

<rect x="0" y="1851.4" height="409.5" class="m w" data-href="#" />
</g>
</g>
<!-- الاسبوع العشرين -->
<g transform="translate(20480,0)">
<image data-src="image/B/20.webp" width="1024" height="2454" />
</g>

<!-- الاسبوع الواحد و العشرين -->
<g transform="translate(21504,0)">
<image data-src="image/B/21.webp" width="1024" height="2454" />

<!-- Saturday 21 -->
<g transform="translate(139,0)">

<rect x="0" y="1128.5" height="376.5" class="m w" data-href="#" />

<rect x="0" y="150.8" height="378" class="m w" data-href="#"/>

<rect x="0" y="1886.2" height="287" class="m w" data-href="4"/>

<!-- Monday 8 -->
<g transform="translate(254,0)">

<rect x="0" y="1128.3" height="376.71" class="image-mapper-shape" data-index="5"></rect>
</g>
</a>
<a xlink:href="#" target="---" xlink:title="">
<g>
<rect x="253.51809014246606" y="1505.7418611557855" width="113.89889292121222" height="378.84332841142145" class="image-mapper-shape" data-index="6"></rect>
</g>
</a>
<a xlink:href="#" target="---" xlink:title="">
<g>
<rect x="253.92206634534062" y="1885.5453820602388" width="113.74708572253456" height="289.5202734531681" class="image-mapper-shape" data-index="7"></rect>
</g>
</a>
<a xlink:href="#" target="---" xlink:title="">
<g>
<rect x="368.2439370008242" y="289.2654615501207" width="113.93783011204823" height="448.07524857052874" class="image-mapper-shape" data-index="8"></rect>
</g>
</a>
<a xlink:href="#" target="---" xlink:title="">
<g>
<rect x="369.1762423542518" y="853.4999422844859" width="112.39301016620743" height="547.627233427971" class="image-mapper-shape" data-index="9"></rect>
</g>
</a>
<a xlink:href="#" target="---" xlink:title="">
<g>
<rect x="367.5329060753655" y="1886.2861228141642" width="114.35422338280199" height="384.20422089529393" class="image-mapper-shape" data-index="10"></rect>
</g>
</a>
<a xlink:href="#" target="---" xlink:title="">
<g>
<rect x="598.8421020123712" y="1402.8984647495265" width="112.6108670525582" height="480.94561952598224" class="image-mapper-shape" data-index="11"></rect>
</g>
</a>
<a xlink:href="#" target="---" xlink:title="">
<g>
<rect x="713.0732483296988" y="391.22448932004886" width="112.52014271440191" height="460.9707722762972" class="image-mapper-shape" data-index="12"></rect>
</g>
</a>
<a xlink:href="#" target="---" xlink:title="">
<g>
<rect x="713.0699674897454" y="854.314319668477" width="112.05882016317503" height="546.72864781851" class="image-mapper-shape" data-index="13"></rect>
</g>
</a>
<a xlink:href="#" target="---" xlink:title="">
<g>
<rect x="712.0285742078669" y="1403.0770882581012" width="114.10706677297821" height="482.639262017487" class="image-mapper-sha
</g>
<g id="dynamic-links-group"></g>
</svg>